<svg width="288" height="289" viewBox="0 0 288 289" fill="none" xmlns="http://www.w3.org/2000/svg">
<g clip-path="url(#clip0)">
<path d="M27.6958 243.457L25.1593 233.449C20.6621 231.542 16.0609 229.89 11.3777 228.502L11.0576 233.153L9.7592 228.029C3.95124 226.368 0 225.637 0 225.637C0 225.637 5.33585 245.942 16.5311 261.465L29.5746 263.757L19.4415 265.219C20.8497 266.915 22.3631 268.519 23.9727 270.025C40.2567 285.147 58.3944 292.085 64.4838 285.521C70.5732 278.958 62.3089 261.378 46.0248 246.257C40.9767 241.569 34.6351 237.807 28.287 234.845L27.6958 243.457Z" fill="#F2F2F2"/>
<path d="M51.8178 232.586L54.8174 222.707C51.953 218.749 48.8678 214.956 45.5764 211.345L42.8991 215.161L44.4349 210.103C40.3205 205.679 37.3158 203.01 37.3158 203.01C37.3158 203.01 31.3942 223.152 32.9563 242.23L42.9378 250.938L33.5065 246.948C33.8365 249.128 34.3032 251.285 34.9039 253.406C41.0308 274.773 52.9727 290.092 61.5766 287.623C70.1804 285.153 72.1887 265.83 66.0618 244.463C64.1625 237.839 60.6772 231.339 56.7731 225.522L51.8178 232.586Z" fill="#F2F2F2"/>
<path d="M200.965 68.4643H199.383V25.0994C199.383 21.8033 198.734 18.5395 197.473 15.4943C196.212 12.4491 194.364 9.68215 192.035 7.35146C189.705 5.02076 186.94 3.17195 183.896 1.91059C180.852 0.649225 177.59 1.14441e-05 174.295 1.14441e-05H82.4618C75.8082 1.14441e-05 69.4271 2.64441 64.7223 7.35146C60.0175 12.0585 57.3744 18.4426 57.3744 25.0994V263.007C57.3744 266.303 58.0233 269.567 59.284 272.612C60.5448 275.657 62.3927 278.424 64.7223 280.755C67.0519 283.085 69.8175 284.934 72.8613 286.195C75.905 287.457 79.1673 288.106 82.4618 288.106H174.295C180.949 288.106 187.33 285.461 192.035 280.754C196.739 276.047 199.382 269.663 199.382 263.007V99.3323H200.965L200.965 68.4643Z" fill="#E6E6E6"/>
<path d="M175.308 6.52755H163.321C163.872 7.87979 164.083 9.34692 163.934 10.7997C163.785 12.2525 163.281 13.6463 162.467 14.8583C161.653 16.0704 160.553 17.0635 159.265 17.7501C157.976 18.4368 156.539 18.7959 155.079 18.7958H102.469C101.009 18.7958 99.572 18.4365 98.2838 17.7499C96.9957 17.0632 95.896 16.07 95.0819 14.858C94.2677 13.646 93.7639 12.2522 93.615 10.7995C93.466 9.34679 93.6764 7.87973 94.2277 6.52755H83.0317C78.0628 6.52755 73.2975 8.50236 69.784 12.0175C66.2705 15.5327 64.2966 20.3003 64.2966 25.2715V262.833C64.2966 267.805 66.2705 272.572 69.784 276.087C73.2975 279.602 78.0628 281.577 83.0317 281.577H175.308C180.276 281.577 185.042 279.602 188.555 276.087C192.069 272.572 194.043 267.805 194.043 262.833V25.2712C194.042 20.3 192.069 15.5325 188.555 12.0174C185.042 8.50231 180.276 6.52755 175.308 6.52755Z" fill="white"/>
<path d="M117.411 101.16C117.411 99.4995 117.848 97.8682 118.678 96.4303C119.508 94.9924 120.702 93.7986 122.14 92.9691C120.703 92.1387 119.073 91.7014 117.413 91.7012C115.753 91.701 114.123 92.138 112.686 92.9681C111.248 93.7981 110.055 94.9921 109.225 96.4301C108.395 97.868 107.958 99.4991 107.958 101.159C107.958 102.82 108.395 104.451 109.225 105.889C110.055 107.327 111.248 108.521 112.686 109.351C114.123 110.181 115.753 110.618 117.413 110.618C119.073 110.618 120.703 110.18 122.14 109.35C120.702 108.521 119.508 107.327 118.678 105.889C117.848 104.452 117.411 102.82 117.411 101.16Z" fill="#CCCCCC"/>
<path d="M129.296 101.16C129.296 99.4995 129.732 97.8682 130.563 96.4303C131.393 94.9923 132.587 93.7986 134.025 92.9691C132.588 92.1387 130.957 91.7014 129.298 91.7012C127.638 91.701 126.008 92.138 124.57 92.9681C123.133 93.7981 121.939 94.9921 121.11 96.4301C120.28 97.868 119.843 99.4991 119.843 101.159C119.843 102.82 120.28 104.451 121.11 105.889C121.939 107.327 123.133 108.521 124.57 109.351C126.008 110.181 127.638 110.618 129.298 110.618C130.957 110.618 132.588 110.18 134.025 109.35C132.587 108.521 131.393 107.327 130.563 105.889C129.733 104.452 129.296 102.82 129.296 101.16Z" fill="#CCCCCC"/>
<path d="M140.911 110.618C146.132 110.618 150.364 106.383 150.364 101.16C150.364 95.936 146.132 91.7014 140.911 91.7014C135.689 91.7014 131.457 95.936 131.457 101.16C131.457 106.383 135.689 110.618 140.911 110.618Z" fill="#6C63FF"/>
<path d="M156.71 130.702H101.612C101.087 130.701 100.584 130.492 100.213 130.121C99.8424 129.75 99.6338 129.247 99.6332 128.722V73.5973C99.6338 73.0725 99.8424 72.5693 100.213 72.1983C100.584 71.8272 101.087 71.6184 101.612 71.6178H156.71C157.235 71.6184 157.738 71.8272 158.109 72.1983C158.479 72.5693 158.688 73.0725 158.689 73.5973V128.722C158.688 129.247 158.479 129.75 158.109 130.121C157.738 130.492 157.235 130.701 156.71 130.702ZM101.612 72.4101C101.297 72.4104 100.995 72.5356 100.773 72.7582C100.55 72.9809 100.425 73.2828 100.425 73.5977V128.723C100.425 129.037 100.55 129.339 100.773 129.562C100.995 129.785 101.297 129.91 101.612 129.91H156.71C157.025 129.91 157.327 129.785 157.549 129.562C157.772 129.339 157.897 129.037 157.897 128.723V73.5977C157.897 73.2828 157.772 72.9809 157.549 72.7582C157.327 72.5356 157.025 72.4104 156.71 72.4101H101.612Z" fill="#CCCCCC"/>
<path d="M169.013 172.957H84.5083V173.749H169.013V172.957Z" fill="#CCCCCC"/>
<path d="M87.177 168.014C88.6509 168.014 89.8457 166.818 89.8457 165.344C89.8457 163.869 88.6509 162.674 87.177 162.674C85.7031 162.674 84.5083 163.869 84.5083 165.344C84.5083 166.818 85.7031 168.014 87.177 168.014Z" fill="#6C63FF"/>
<path d="M169.013 199.656H84.5083V200.447H169.013V199.656Z" fill="#CCCCCC"/>
<path d="M87.177 194.712C88.6509 194.712 89.8457 193.517 89.8457 192.042C89.8457 190.568 88.6509 189.372 87.177 189.372C85.7031 189.372 84.5083 190.568 84.5083 192.042C84.5083 193.517 85.7031 194.712 87.177 194.712Z" fill="#6C63FF"/>
<path d="M167.466 230.058H140.761C140.299 230.058 139.857 229.874 139.531 229.548C139.205 229.222 139.021 228.779 139.021 228.318V218.953C139.021 218.491 139.205 218.049 139.531 217.723C139.857 217.396 140.299 217.213 140.761 217.212H167.466C167.928 217.213 168.37 217.396 168.696 217.723C169.022 218.049 169.206 218.491 169.206 218.953V228.318C169.206 228.779 169.022 229.222 168.696 229.548C168.37 229.874 167.928 230.058 167.466 230.058Z" fill="#6C63FF"/>
<path d="M95.8822 168.014C97.3561 168.014 98.5509 166.818 98.5509 165.344C98.5509 163.869 97.3561 162.674 95.8822 162.674C94.4083 162.674 93.2135 163.869 93.2135 165.344C93.2135 166.818 94.4083 168.014 95.8822 168.014Z" fill="#6C63FF"/>
<path d="M104.587 168.014C106.061 168.014 107.256 166.818 107.256 165.344C107.256 163.869 106.061 162.674 104.587 162.674C103.114 162.674 101.919 163.869 101.919 165.344C101.919 166.818 103.114 168.014 104.587 168.014Z" fill="#6C63FF"/>
<path d="M95.8822 194.712C97.3561 194.712 98.5509 193.517 98.5509 192.042C98.5509 190.568 97.3561 189.372 95.8822 189.372C94.4083 189.372 93.2135 190.568 93.2135 192.042C93.2135 193.517 94.4083 194.712 95.8822 194.712Z" fill="#6C63FF"/>
<path d="M104.587 194.712C106.061 194.712 107.256 193.517 107.256 192.042C107.256 190.568 106.061 189.372 104.587 189.372C103.114 189.372 101.919 190.568 101.919 192.042C101.919 193.517 103.114 194.712 104.587 194.712Z" fill="#6C63FF"/>
<path d="M286.924 289H9.31067C8.71638 289 8.23499 288.789 8.23499 288.529C8.23499 288.269 8.71638 288.057 9.31067 288.057H286.924C287.518 288.057 288 288.268 288 288.529C288 288.789 287.518 289 286.924 289Z" fill="#3F3D56"/>
<path d="M218.336 189.344C218.525 189.431 218.708 189.532 218.881 189.648L236.223 182.243L236.842 177.672L243.772 177.63L243.363 188.113L220.473 194.169C220.424 194.328 220.367 194.484 220.3 194.636C219.969 195.343 219.436 195.936 218.77 196.341C218.103 196.746 217.332 196.944 216.553 196.912C215.773 196.88 215.021 196.618 214.39 196.159C213.759 195.701 213.278 195.066 213.006 194.334C212.735 193.603 212.686 192.807 212.865 192.048C213.043 191.289 213.443 190.599 214.012 190.066C214.581 189.533 215.296 189.18 216.065 189.051C216.834 188.923 217.624 189.024 218.336 189.344Z" fill="#FFB8B8"/>
<path d="M246.292 284.336H241.552L239.297 266.043L246.293 266.044L246.292 284.336Z" fill="#FFB8B8"/>
<path d="M238.166 282.981H247.308V288.74H232.41C232.41 287.213 233.016 285.748 234.096 284.668C235.175 283.588 236.639 282.981 238.166 282.981Z" fill="#2F2E41"/>
<path d="M264.728 282.996L260.01 283.461L255.973 265.478L262.936 264.792L264.728 282.996Z" fill="#FFB8B8"/>
<path d="M256.508 282.445L265.606 281.548L266.17 287.279L251.344 288.74C251.27 287.988 251.345 287.228 251.564 286.504C251.784 285.78 252.143 285.107 252.623 284.522C253.102 283.938 253.692 283.453 254.359 283.097C255.026 282.74 255.756 282.519 256.508 282.445Z" fill="#2F2E41"/>
<path d="M247.612 158.27C252.857 158.27 257.108 154.016 257.108 148.769C257.108 143.522 252.857 139.268 247.612 139.268C242.367 139.268 238.115 143.522 238.115 148.769C238.115 154.016 242.367 158.27 247.612 158.27Z" fill="#FFB8B8"/>
<path d="M240.492 280.637C240.085 280.638 239.69 280.495 239.378 280.233C239.066 279.972 238.856 279.608 238.785 279.207C236.332 265.58 228.312 221.024 228.12 219.79C228.116 219.761 228.114 219.732 228.114 219.704V216.382C228.113 216.261 228.151 216.143 228.222 216.044L229.281 214.56C229.332 214.488 229.398 214.429 229.474 214.387C229.551 214.345 229.636 214.322 229.723 214.318C235.764 214.035 255.546 213.204 256.502 214.399C257.462 215.599 257.122 219.237 257.045 219.954L257.048 220.029L265.936 276.892C266.005 277.346 265.894 277.809 265.625 278.18C265.356 278.552 264.952 278.803 264.499 278.879L258.948 279.794C258.535 279.86 258.112 279.776 257.755 279.556C257.398 279.337 257.132 278.996 257.005 278.597C255.288 273.109 249.532 254.645 247.536 247.5C247.524 247.455 247.495 247.416 247.456 247.39C247.417 247.364 247.37 247.354 247.323 247.36C247.277 247.367 247.234 247.39 247.204 247.426C247.173 247.462 247.157 247.507 247.157 247.554C247.257 254.365 247.498 271.741 247.581 277.742L247.59 278.388C247.594 278.826 247.433 279.249 247.14 279.574C246.847 279.899 246.443 280.102 246.008 280.143L240.655 280.63C240.6 280.635 240.546 280.637 240.492 280.637Z" fill="#2F2E41"/>
<path d="M241.585 162.006C239.927 162.992 238.936 164.803 238.367 166.646C237.313 170.059 236.679 173.587 236.478 177.153L235.876 187.829L228.431 216.135C234.884 221.597 238.606 220.356 247.293 215.888C255.979 211.419 256.972 217.377 256.972 217.377L258.709 193.293L261.19 166.975C260.633 166.304 260.003 165.698 259.311 165.167C257.017 163.383 254.348 162.142 251.505 161.54C248.663 160.937 245.72 160.987 242.9 161.688L241.585 162.006Z" fill="#6C63FF"/>
<path d="M239.166 195.06C239.367 195.136 239.561 195.227 239.746 195.333L256.894 186.746L257.179 182.094L264.252 181.606L264.631 192.21L241.716 199.792C241.529 200.595 241.102 201.322 240.491 201.876C239.881 202.43 239.117 202.786 238.3 202.895C237.483 203.004 236.653 202.861 235.919 202.487C235.185 202.112 234.582 201.522 234.191 200.797C233.8 200.071 233.639 199.243 233.73 198.424C233.82 197.604 234.158 196.832 234.698 196.209C235.238 195.586 235.955 195.143 236.753 194.938C237.551 194.733 238.393 194.775 239.166 195.06Z" fill="#FFB8B8"/>
<path d="M261.066 167.096C265.285 168.586 266.028 184.726 266.028 184.726C261.065 181.995 255.109 186.464 255.109 186.464C255.109 186.464 253.868 182.243 252.379 176.78C251.929 175.244 251.875 173.619 252.222 172.056C252.57 170.493 253.306 169.043 254.364 167.842C254.364 167.842 256.847 165.605 261.066 167.096Z" fill="#6C63FF"/>
<path d="M256.127 151.282C254.944 150.334 253.329 152.056 253.329 152.056L252.383 143.532C252.383 143.532 246.466 144.241 242.68 143.296C238.894 142.35 238.302 146.729 238.302 146.729C238.107 144.96 238.067 143.178 238.184 141.402C238.42 139.271 241.497 137.14 246.94 135.719C252.383 134.299 255.222 140.455 255.222 140.455C259.009 142.349 257.31 152.229 256.127 151.282Z" fill="#2F2E41"/>
</g>
<defs>
<clipPath id="clip0">
<rect width="288" height="289" fill="white"/>
</clipPath>
</defs>
</svg>
