<svg width="524" height="312" viewBox="0 0 524 312" fill="none" xmlns="http://www.w3.org/2000/svg">
<g clip-path="url(#clip0)">
<path d="M401.187 308.472C394.478 302.826 390.403 293.908 391.472 285.226C392.54 276.544 399.159 268.562 407.745 266.719C416.331 264.875 426.118 269.978 428.725 278.331C430.16 262.228 431.814 245.449 440.411 231.736C448.195 219.318 461.677 210.433 476.289 208.844C490.901 207.254 506.285 213.258 515.398 224.743C524.511 236.229 526.742 252.927 520.36 266.114C515.658 275.828 506.996 283.057 497.92 288.939C468.593 307.784 433.419 315.447 398.87 310.519L401.187 308.472Z" fill="#F2F2F2"/>
<path d="M500.949 213.59C488.892 223.37 477.832 234.309 467.927 246.247C452.426 264.866 439.883 285.742 430.734 308.147C430.064 309.781 432.729 310.493 433.391 308.877C448.361 272.464 472.258 240.371 502.898 215.531C504.273 214.415 502.313 212.484 500.949 213.59Z" fill="white"/>
<path d="M168.684 306.938C177.898 299.184 183.495 286.934 182.027 275.009C180.56 263.085 171.469 252.122 159.676 249.59C147.884 247.057 134.442 254.067 130.86 265.54C128.889 243.421 126.617 220.376 114.81 201.541C104.118 184.485 85.6001 172.282 65.5308 170.099C45.4616 167.915 24.3312 176.161 11.8147 191.937C-0.701736 207.713 -3.76634 230.647 4.99987 248.759C11.4576 262.102 23.3551 272.031 35.8207 280.109C75.5902 305.882 124.924 316.63 171.866 309.75" fill="#F2F2F2"/>
<path d="M31.6609 176.618C48.2205 190.051 63.4122 205.075 77.0163 221.472C90.6225 237.852 102.601 255.509 112.784 274.192C118.476 284.673 123.59 295.456 128.101 306.492C129.021 308.737 125.361 309.714 124.451 307.494C116.46 288.038 106.573 269.408 94.933 251.872C83.3492 234.4 70.0911 218.089 55.3446 203.166C47.004 194.73 38.2039 186.758 28.9843 179.284C27.0945 177.751 29.7867 175.098 31.6609 176.618L31.6609 176.618Z" fill="white"/>
<path d="M376.136 311.317H156.297V86.6769C156.297 38.883 195.339 0 243.329 0H289.104C337.093 0 376.136 38.883 376.136 86.6769V311.317Z" fill="#F2F2F2"/>
<path d="M330.361 311.317H156.297V86.6769C156.248 68.3634 162.071 50.5127 172.917 35.7239C173.317 35.1812 173.716 34.6455 174.127 34.1156C179.373 27.2631 185.617 21.2282 192.65 16.21C193.048 15.9221 193.447 15.6392 193.852 15.3563C199.737 11.2998 206.104 7.98372 212.807 5.4835C213.205 5.33325 213.611 5.1827 214.016 5.0383C220.078 2.88372 226.362 1.40784 232.752 0.637916C233.148 0.58402 233.555 0.541846 233.962 0.499671C240.189 -0.163434 246.47 -0.163434 252.697 0.499671C253.102 0.541846 253.509 0.584015 253.91 0.638492C260.298 1.40847 266.581 2.88416 272.642 5.03832C273.047 5.18272 273.452 5.33326 273.851 5.48381C280.472 7.95249 286.764 11.2191 292.587 15.2107C292.991 15.4875 293.396 15.7704 293.795 16.0534C297.738 18.8563 301.441 21.9789 304.868 25.3893C307.615 28.1248 310.176 31.0407 312.532 34.1174C312.941 34.6455 313.34 35.1812 313.739 35.723C324.586 50.512 330.409 68.363 330.361 86.6769V311.317Z" fill="#CCCCCC"/>
<path d="M316.207 210.844C321.529 210.844 325.844 206.547 325.844 201.246C325.844 195.946 321.529 191.649 316.207 191.649C310.885 191.649 306.57 195.946 306.57 201.246C306.57 206.547 310.885 210.844 316.207 210.844Z" fill="#3C4DD3"/>
<path d="M358.126 304.589H350.742L347.229 276.223L358.128 276.224L358.126 304.589Z" fill="#FFB8B8"/>
<path d="M345.468 302.487H359.708V311.417H336.501C336.501 310.244 336.733 309.083 337.184 308C337.634 306.916 338.295 305.932 339.127 305.103C339.96 304.274 340.948 303.616 342.036 303.167C343.124 302.718 344.29 302.487 345.468 302.487Z" fill="#2F2E41"/>
<path d="M394.867 304.589H387.482L383.969 276.223L394.868 276.224L394.867 304.589Z" fill="#FFB8B8"/>
<path d="M382.208 302.487H396.448V311.417H373.241C373.241 310.244 373.473 309.083 373.924 308C374.375 306.916 375.035 305.932 375.868 305.103C376.7 304.274 377.689 303.616 378.777 303.167C379.864 302.718 381.03 302.487 382.208 302.487Z" fill="#2F2E41"/>
<path d="M321.084 203.148C320.553 202.368 320.2 201.482 320.05 200.552C319.899 199.622 319.956 198.67 320.215 197.764C320.474 196.858 320.929 196.02 321.549 195.308C322.168 194.596 322.937 194.028 323.801 193.644L348.902 124.743L361.254 131.456L332.593 197.301C333.145 198.789 333.129 200.426 332.549 201.903C331.969 203.381 330.865 204.595 329.446 205.315C328.028 206.036 326.393 206.213 324.852 205.814C323.31 205.414 321.97 204.466 321.084 203.148Z" fill="#FFB8B8"/>
<path d="M391.095 216.095C390.274 215.626 389.567 214.984 389.022 214.214C388.478 213.443 388.109 212.563 387.943 211.636C387.777 210.709 387.817 209.756 388.06 208.846C388.304 207.936 388.745 207.089 389.352 206.367L381.576 133.481L395.632 134.121L398.864 205.814C400.015 206.91 400.722 208.389 400.851 209.97C400.98 211.551 400.522 213.124 399.564 214.391C398.607 215.658 397.216 216.532 395.655 216.846C394.093 217.16 392.471 216.892 391.095 216.095Z" fill="#FFB8B8"/>
<path d="M368.671 111.98C376.841 111.98 383.464 105.384 383.464 97.2476C383.464 89.111 376.841 82.5149 368.671 82.5149C360.501 82.5149 353.878 89.111 353.878 97.2476C353.878 105.384 360.501 111.98 368.671 111.98Z" fill="#FFB8B8"/>
<path d="M391 199.518H346.402L346.455 199.172C346.536 198.656 354.404 147.323 348.601 130.529C348.018 128.879 348.07 127.072 348.744 125.457C349.419 123.842 350.67 122.533 352.256 121.781H352.256C360.551 117.891 376.473 113.101 389.912 124.726C391.89 126.465 393.434 128.638 394.423 131.074C395.412 133.509 395.818 136.141 395.61 138.76L391 199.518Z" fill="#3C4DD3"/>
<path d="M354.968 154.909L334.889 150.852L344.3 128.64C344.864 126.489 346.261 124.648 348.185 123.521C350.109 122.394 352.404 122.073 354.566 122.629C356.727 123.185 358.579 124.572 359.715 126.485C360.851 128.399 361.179 130.684 360.626 132.838L354.968 154.909Z" fill="#3C4DD3"/>
<path d="M380.683 162.442L379.476 134.884C378.561 129.704 381.538 124.807 386.118 124.006C390.699 123.209 395.171 126.801 396.091 132.02L400.628 157.77L380.683 162.442Z" fill="#3C4DD3"/>
<path d="M389.516 196.219C396.692 223.438 397.475 258.044 395.539 295.792L385.903 294.593L368.436 222.612L358.799 295.792L347.958 295.193C344.719 255.585 341.565 221.583 346.753 199.218L389.516 196.219Z" fill="#2F2E41"/>
<path d="M378.418 108.633C375.658 111.561 370.533 109.989 370.173 105.99C370.145 105.679 370.147 105.367 370.179 105.057C370.365 103.285 371.393 101.677 371.147 99.8059C371.091 99.3404 370.917 98.8967 370.641 98.5169C368.441 95.5841 363.279 99.8287 361.204 97.1737C359.931 95.5458 361.427 92.9825 360.45 91.163C359.161 88.7615 355.344 89.9462 352.949 88.631C350.286 87.1677 350.445 83.0973 352.198 80.6215C354.337 77.6022 358.086 75.991 361.789 75.7588C365.492 75.5266 369.169 76.5235 372.626 77.8651C376.553 79.3895 380.448 81.4963 382.865 84.9358C385.805 89.1186 386.088 94.7419 384.617 99.6329C383.723 102.608 380.671 106.243 378.418 108.633Z" fill="#2F2E41"/>
<path d="M505.92 311.703H61.2463C61.0565 311.702 60.8746 311.627 60.7406 311.493C60.6065 311.359 60.5313 311.178 60.5313 310.989C60.5313 310.8 60.6065 310.618 60.7406 310.485C60.8746 310.351 61.0565 310.275 61.2463 310.275H505.92C506.11 310.275 506.292 310.351 506.426 310.485C506.56 310.618 506.635 310.8 506.635 310.989C506.635 311.178 506.56 311.359 506.426 311.493C506.292 311.627 506.11 311.702 505.92 311.703Z" fill="#3F3D56"/>
<path d="M282.478 246.234H204.179C203.148 246.24 202.157 245.838 201.423 245.117C200.689 244.395 200.272 243.413 200.264 242.386V68.331C200.272 67.304 200.689 66.3221 201.423 65.6007C202.157 64.8793 203.148 64.4773 204.179 64.4828H282.478C283.509 64.4773 284.501 64.8793 285.235 65.6007C285.969 66.3221 286.385 67.304 286.393 68.331V242.386C286.385 243.413 285.969 244.395 285.235 245.117C284.501 245.838 283.509 246.24 282.478 246.234Z" fill="white"/>
<path d="M286.393 120.802H200.264V122.001H286.393V120.802Z" fill="#CCCCCC"/>
<path d="M286.694 189.25H200.566V190.449H286.694V189.25Z" fill="#CCCCCC"/>
<path d="M228.572 64.4828H227.368V246.834H228.572V64.4828Z" fill="#CCCCCC"/>
<path d="M258.687 64.4828H257.483V246.834H258.687V64.4828Z" fill="#CCCCCC"/>
</g>
<defs>
<clipPath id="clip0">
<rect width="524" height="312" fill="white"/>
</clipPath>
</defs>
</svg>
